<?xml version="1.0" encoding="iso-8859-1"?>
<!-- Generator: Adobe Illustrator 19.0.0, SVG Export Plug-In . SVG Version: 6.00 Build 0)  -->
<svg version="1.1" id="Layer_1" xmlns="http://www.w3.org/2000/svg" xmlns:xlink="http://www.w3.org/1999/xlink" x="0px" y="0px"
	 viewBox="0 0 344.446 344.446" style="enable-background:new 0 0 344.446 344.446;" xml:space="preserve">
<g>
	<g>
		<g>
			<path d="M254.556,221.867l-43.444-9.656v-14.183c16.772-12.539,27.778-32.856,27.778-55.611v-29.139
				c0-16.828-11.3-31.811-27.478-36.433c-11.311-3.239-23.717-0.95-33.15,6.122l-0.483,0.361V55.556h-11.111v27.778l-0.489-0.367
				c-9.422-7.067-21.817-9.367-33.144-6.117c-16.178,4.622-27.478,19.6-27.478,36.428v31.167c0,18.039,7.089,34.933,19.961,47.572
				c2.45,2.406,5.089,4.533,7.817,6.5v13.689l-43.444,9.656c-33.3,7.406-56.556,36.394-56.556,70.506v52.078h277.778v-52.078
				C311.111,258.256,287.856,229.267,254.556,221.867z M116.667,113.278c0-11.889,7.989-22.478,19.416-25.75
				c2.394-0.683,4.856-1.017,7.306-1.017c5.75,0,11.456,1.844,16.117,5.339l12.717,9.539l12.706-9.533
				c6.661-4.994,15.422-6.611,23.433-4.328c11.433,3.272,19.417,13.861,19.417,25.75v3.389h-6.344
				C218.95,107.111,210.328,100,200,100s-18.95,7.111-21.433,16.667h-12.689C163.394,107.111,154.772,100,144.444,100
				s-18.95,7.111-21.433,16.667h-6.344V113.278z M211.111,122.222c0,6.128-4.983,11.111-11.111,11.111s-11.111-4.983-11.111-11.111
				s4.983-11.111,11.111-11.111S211.111,116.094,211.111,122.222z M155.556,122.222c0,6.128-4.983,11.111-11.111,11.111
				s-11.111-4.983-11.111-11.111s4.983-11.111,11.111-11.111S155.556,116.094,155.556,122.222z M133.298,184.088
				c-10.726-10.532-16.631-24.61-16.631-39.644v-16.667h6.344c2.483,9.556,11.106,16.667,21.433,16.667
				c10.327,0,18.95-7.111,21.433-16.667h12.689c2.483,9.556,11.106,16.667,21.433,16.667c10.327,0,18.95-7.111,21.433-16.667h6.344
				v14.639c0,31.194-24.45,57.022-54.517,57.572C158.242,200.31,144.02,194.61,133.298,184.088z M166.667,333.334H100v-22.222
				H88.889v22.222H44.444v-40.967c0-28.861,19.678-53.394,47.85-59.656l14.528-3.228l-8.722,17.45l21.567,10.778l-11.422,17.128
				l58.422,23.367V333.334z M166.667,286.238l-41.578-16.633l10.8-16.206l-22.878-11.444l7.794-15.583l15.056-3.339l30.806,61.611
				V286.238z M144.444,215.355v-10.344c8.612,3.956,18.012,6.1,27.767,6.1c0.417,0,0.833-0.006,1.261-0.011
				c9.45-0.172,18.411-2.456,26.528-6.339v10.594l-27.778,55.556L144.444,215.355z M177.777,284.645l30.806-61.611l15.061,3.344
				l7.794,15.583l-22.878,11.444l10.8,16.206l-41.583,16.628V284.645z M300.001,333.333H300h-44.444v-22.222h-11.111v22.222h-66.667
				v-35.128l58.422-23.367l-11.422-17.128l21.567-10.778l-8.722-17.45l14.528,3.228c28.172,6.261,47.85,30.794,47.85,59.656V333.333
				z"/>
			<rect x="94.444" y="172.222" width="11.111" height="33.333"/>
			<path d="M83.333,168.406c0-10.389,4.05-20.15,11.389-27.494l3.65-3.65l-7.856-7.861l-3.65,3.65
				c-9.444,9.444-14.644,22-14.644,35.356v20.483h11.111V168.406z"/>
			<path d="M67.778,85.556L60,95.928c-6.45,8.6-10,19.25-10,29.994V150h11.111v-24.072c0-8.356,2.761-16.644,7.772-23.333
				l7.778-10.372L67.778,85.556z"/>
			<rect x="238.889" y="172.222" width="11.111" height="33.333"/>
			<path d="M257.578,133.05l-3.65-3.65l-7.856,7.861l3.65,3.644c7.339,7.344,11.389,17.111,11.389,27.5v20.483h11.111v-20.482
				C272.222,155.05,267.022,142.495,257.578,133.05z"/>
			<path d="M294.444,150v-24.072c0-10.744-3.55-21.4-10-30l-7.778-10.372l-8.889,6.667l7.778,10.367
				c5.017,6.689,7.778,14.978,7.778,23.339V150H294.444z"/>
			<path d="M67.811,40.089l2.661-3.244c13.378-16.356,33.167-25.733,54.294-25.733c15.078,0,30.022,4.983,42.089,14.033l5.367,4.022
				l5.367-4.022c12.067-9.05,27.011-14.033,42.089-14.033c21.128,0,40.917,9.378,54.294,25.728l2.656,3.244
				C291.7,58.506,300,81.756,300,105.556h11.111c0-26.356-9.189-52.1-25.883-72.506l-2.656-3.244C267.078,10.867,244.15,0,219.678,0
				c-16.933,0-33.717,5.422-47.456,15.3C158.483,5.422,141.694,0,124.767,0c-24.472,0-47.4,10.867-62.889,29.806l-2.661,3.244
				C42.522,53.456,33.333,79.2,33.333,105.556h11.111C44.444,81.756,52.744,58.506,67.811,40.089z"/>
			<rect x="194.444" y="311.111" width="38.889" height="11.111"/>
			<rect x="166.667" y="33.333" width="11.111" height="11.111"/>
		</g>
	</g>
</g>
<g>
</g>
<g>
</g>
<g>
</g>
<g>
</g>
<g>
</g>
<g>
</g>
<g>
</g>
<g>
</g>
<g>
</g>
<g>
</g>
<g>
</g>
<g>
</g>
<g>
</g>
<g>
</g>
<g>
</g>
</svg>
